<?xml version="1.0" encoding="UTF-8"?>
<!DOCTYPE svg PUBLIC "-//W3C//DTD SVG 1.1//EN" "http://www.w3.org/Graphics/SVG/1.1/DTD/svg11.dtd">
<!-- Creator: CorelDRAW 2020 (64-Bit) -->
<svg xmlns="http://www.w3.org/2000/svg" xml:space="preserve" width="43.3578mm" height="49.6824mm" version="1.1" style="shape-rendering:geometricPrecision; text-rendering:geometricPrecision; image-rendering:optimizeQuality; fill-rule:evenodd; clip-rule:evenodd"
viewBox="0 0 4335.78 4968.24"
 xmlns:xlink="http://www.w3.org/1999/xlink"
 xmlns:xodm="http://www.corel.com/coreldraw/odm/2003">
 <defs>
  <style type="text/css">
   <![CDATA[
    .fil1 {fill:black}
    .fil0 {fill:#5A4F4D}
    .fil3 {fill:#6C6C6C}
    .fil4 {fill:gray}
    .fil2 {fill:#BDBAB9}
   ]]>
  </style>
 </defs>
 <g id="Capa_x0020_1">
  <metadata id="CorelCorpID_0Corel-Layer"/>
  <g id="_1683887299984">
   <path class="fil0" d="M1245.5 101.8c-80.74,45.6 -71.79,43.8 -111.5,132.19 -22.83,50.81 -25.41,154.81 -26.52,218.46 -4.14,237.14 -23.52,480.89 -25.86,722.25 -0.86,88.35 -9.91,145.49 -10.19,233.82 -0.52,167.26 -1.45,334.82 -1.31,502.04 0.52,662.46 0.34,1325.05 -0.83,1987.52 -0.41,232.78 -11.54,504.88 -4.19,735.99 5.12,161.15 84.72,232.22 217.38,277.12 57.85,19.58 122.66,46.39 193.84,51.01 69.45,4.51 174.81,20.07 235.46,4.04 86.9,-22.99 104.96,-39.86 131.61,-124.85 42.26,-134.79 49.17,-804.57 50,-943.31 0.52,-84.35 9.46,-155.88 11.79,-233.7 2.35,-78.34 5.73,-157.02 6.94,-240.84 2.22,-152.78 17.84,-322.08 21.88,-469.75 -10.23,-147.21 10.75,-315.12 3.46,-465.54 -7.16,-147.66 -1.26,-311.48 -0.91,-460.78 0.71,-307.18 0.54,-614.37 1.28,-921.55 0.69,-282.81 16.75,-642.78 -11.95,-907.53 -15.96,-147.16 -114.85,-211.69 -283.29,-165.6l-397.09 69.01z"/>
   <path class="fil1" d="M2397.17 2404.78c9.08,265.52 -1.98,556.54 -2.22,826.21 -0.16,189.56 -19.55,425.71 -20.36,598.22 -0.28,61.55 3.22,144.79 -2.56,203.66 -12.12,123.63 -4.7,282.92 -4.68,415.39 0.06,377.82 28.9,435.51 374.85,451.42 282.5,12.99 416.14,18.01 424.97,-196.97 2.69,-65.76 7.33,-126.73 7.36,-199.43l15.79 -1118.94c14.38,-92.41 17.49,-390.61 19.85,-504.35 1.22,-59.31 14.38,-121.99 21,-182.33l19.51 -290.87c22.41,-198.94 22.76,-298.09 21.98,-496.24 -0.53,-133.94 -18.37,-111.75 -24.42,-178.84 -28.28,-14.46 -14.42,-11.34 -32.95,-41.17 -5.8,-9.35 -16.84,-27.72 -23.99,-36.72 -52.88,-66.56 -162.92,-105.52 -250.55,-121.05 -69.74,-12.36 -148.42,-23.43 -214.8,-38.18 -82.48,-18.34 -153.4,-24.3 -214.37,12.96 -121.43,74.21 -96.97,235.76 -97.41,403.01 -0.22,84.82 0.07,169.63 -0.22,254.45 -0.2,60.08 12.44,215.22 -16.78,239.77z"/>
   <path class="fil1" d="M343.08 4942.95c74.5,-2.67 152.12,15.8 216.35,-23.27 136.72,-83.17 126.04,-397.79 128.18,-553.94 4.92,-359.38 27.62,-733.4 37.3,-1100.74 5.64,-214.24 23.32,-979.23 7.75,-1124.44 -21.09,-196.64 -97.41,-296.36 -104.57,-357.89 -0.79,-15.95 -25.26,-67.15 -33.69,-84.02 -7.07,-14.15 -15.46,-24.59 -22.13,-38.83 -5.4,-11.54 -12.63,-29.75 -15.99,-38.14 -19.61,-8.85 -13.98,-4.37 -27.95,-35.63 -56.05,-125.48 -181.92,-106.1 -262.02,-109.81 -30.08,-3.11 -72.48,9.95 -94.56,23.54 -26.41,16.27 -54.8,26.05 -76.37,40.6 -107.54,72.53 -91.63,275.81 -84.33,397.65 4.48,74.98 13.06,1102.36 2.03,1138.21 -8.92,29.02 -2.77,7.01 -12.12,10.33 -16.15,167.78 -4.99,882.69 -4.83,1107.23 0.15,199.4 -6.78,338.08 58.45,492.62 32.97,78.1 29.22,95.39 107.73,168.41 33.69,31.33 133.3,91.43 180.77,88.12z"/>
   <path class="fil1" d="M4318.76 3863.7c10.29,-75.91 10.16,-498.07 4.72,-619.29 -1.58,-35.06 -7.64,-38.8 -12.05,-69.15 -27.74,-190.61 -171.56,-206.52 -293.93,-233.89 -27.52,-6.16 -57.64,-2.64 -85.98,-5.82 -34.11,-3.83 -27.35,-10.19 -67.96,-11.27 -208.39,-5.53 -287.64,19.65 -314.39,212.05 -6.17,44.41 -2.69,122.67 -2.69,170.31 0,224.23 11.84,480.96 -7.02,694.87 -8.73,99 -2.66,254.16 -0.75,357.35 2.21,118.7 7.18,228.96 8.63,343.88 4.05,320.44 138.58,240.12 261.11,228.49l308.12 -43.61c14.71,-2.76 46.93,-17.09 64.86,-23.96 110.36,-42.22 112.72,-160.7 114.9,-319.15l22.43 -680.81z"/>
   <path class="fil2" d="M1245.5 101.8l397.09 -69.01c168.44,-46.09 267.33,18.44 283.29,165.6 28.7,264.75 12.64,624.72 11.95,907.53 -0.74,307.18 -0.57,614.37 -1.28,921.55 -0.35,149.3 -6.25,313.12 0.91,460.78 7.29,150.42 -13.69,318.33 -3.46,465.54 19.98,-23.18 13.89,-64.89 16.14,-108.84l7.45 -342.95c-9.99,-147.55 -2.72,-317.69 -2.58,-467.65l1.77 -1409.84c-0.56,-129.74 11.06,-343.66 -12.24,-456.66 -11.03,-53.5 -42.67,-112.44 -91.02,-140.95 -90.59,-53.41 -285.39,7.14 -410.22,26.25l-156.69 25.59c-43.01,8.11 -36.06,14.38 -41.11,23.06z"/>
   <path class="fil3" d="M343.08 4942.95c54.28,40.44 270.08,35.29 316.68,-128.76 67.38,-237.2 32.63,-665.81 58.48,-872.37 14.88,-118.85 14.11,-313.02 14.31,-442.75 0.12,-70.1 6.49,-150.28 7.84,-227.14 5.53,-315.11 26.83,-860.93 11.1,-1148.47 -3.02,-55.17 -26.66,-136.38 -48.55,-181.17 -11.14,-22.82 -22.65,-61.26 -31.84,-83.92 -6.04,-14.93 -10.05,-31.68 -14.82,-42.56 -11.39,-25.99 -18.59,-26.99 -28.19,-33.14 7.16,61.53 83.48,161.25 104.57,357.89 15.57,145.21 -2.11,910.2 -7.75,1124.44 -9.68,367.34 -32.38,741.36 -37.3,1100.74 -2.14,156.15 8.54,470.77 -128.18,553.94 -64.23,39.07 -141.85,20.6 -216.35,23.27z"/>
   <path class="fil4" d="M2397.17 2404.78c29.22,-24.55 16.58,-179.69 16.78,-239.77 0.29,-84.82 0,-169.63 0.22,-254.45 0.44,-167.25 -24.02,-328.8 97.41,-403.01 60.97,-37.26 131.89,-31.3 214.37,-12.96 66.38,14.75 145.06,25.82 214.8,38.18 87.63,15.53 197.67,54.49 250.55,121.05 7.15,9 18.19,27.37 23.99,36.72 18.53,29.83 4.67,26.71 32.95,41.17 -15.04,-131.91 -190.09,-189.37 -302.46,-213.06 -71.66,-15.11 -146.66,-23.99 -216.97,-38.69 -342.04,-71.53 -329.78,150.15 -330.13,409.97 -0.23,171.54 0.31,343.67 -1.51,514.85z"/>
   <path class="fil3" d="M266.31 1476.24c80.1,3.71 205.97,-15.67 262.02,109.81 13.97,31.26 8.34,26.78 27.95,35.63 -2.22,-60.39 -74.13,-151.76 -179.75,-160.03 -23.29,-1.83 -79.51,-6.5 -100.24,5.45 -1.84,1.05 -3.54,3.3 -4.98,4.29 -1.53,1.05 -3.29,3.28 -5,4.85z"/>
  </g>
 </g>
</svg>
